<?xml version="1.0" encoding="utf-8"?>
<svg viewBox="0 0 80 40" xmlns="http://www.w3.org/2000/svg">
  <path fill="#FFF" d="M 33 22.885 L 33 7.885 C 33 7.727 32.951 7.593 32.853 7.479 C 32.752 7.365 32.635 7.307 32.5 7.307 L 7.5 7.307 C 7.365 7.307 7.248 7.365 7.148 7.479 C 7.049 7.593 7 7.727 7 7.885 L 7 22.885 C 7 23.041 7.049 23.176 7.148 23.29 C 7.248 23.404 7.365 23.463 7.5 23.463 L 32.5 23.463 C 32.635 23.463 32.752 23.404 32.853 23.29 C 32.951 23.176 33 23.041 33 22.885 Z M 35 7.885 L 35 27.5 C 35 28.292 34.755 28.972 34.266 29.537 C 33.776 30.103 33.188 30.385 32.5 30.385 L 24 30.385 C 24 30.829 24.083 31.295 24.25 31.783 C 24.417 32.269 24.583 32.695 24.75 33.063 C 24.917 33.428 25 33.69 25 33.846 C 25 34.159 24.901 34.429 24.702 34.658 C 24.505 34.886 24.271 35 24 35 L 16 35 C 15.729 35 15.495 34.886 15.298 34.658 C 15.099 34.429 15 34.159 15 33.846 C 15 33.678 15.083 33.412 15.25 33.053 C 15.417 32.692 15.583 32.272 15.75 31.791 C 15.917 31.31 16 30.841 16 30.385 L 7.5 30.385 C 6.813 30.385 6.224 30.103 5.734 29.537 C 5.245 28.972 5 28.292 5 27.5 L 5 7.885 C 5 7.091 5.245 6.413 5.734 5.848 C 6.224 5.282 6.813 5 7.5 5 L 32.5 5 C 33.188 5 33.776 5.282 34.266 5.848 C 34.755 6.413 35 7.091 35 7.885 Z"/>
  <path fill="#FFF" d="M 61.875 32 C 61.875 31.485 61.691 31.043 61.324 30.676 C 60.957 30.309 60.515 30.125 60 30.125 C 59.485 30.125 59.043 30.309 58.676 30.676 C 58.309 31.043 58.125 31.485 58.125 32 C 58.125 32.515 58.309 32.957 58.676 33.324 C 59.043 33.691 59.485 33.875 60 33.875 C 60.515 33.875 60.957 33.691 61.324 33.324 C 61.691 32.957 61.875 32.515 61.875 32 Z M 66.75 28.25 L 66.75 11.75 C 66.75 11.547 66.676 11.371 66.527 11.223 C 66.379 11.074 66.203 11 66 11 L 54 11 C 53.797 11 53.621 11.074 53.473 11.223 C 53.324 11.371 53.25 11.547 53.25 11.75 L 53.25 28.25 C 53.25 28.453 53.324 28.629 53.473 28.777 C 53.621 28.926 53.797 29 54 29 L 66 29 C 66.203 29 66.379 28.926 66.527 28.777 C 66.676 28.629 66.75 28.453 66.75 28.25 Z M 62.25 8.375 C 62.25 8.125 62.125 8 61.875 8 L 58.125 8 C 57.875 8 57.75 8.125 57.75 8.375 C 57.75 8.625 57.875 8.75 58.125 8.75 L 61.875 8.75 C 62.125 8.75 62.25 8.625 62.25 8.375 Z M 69 8 L 69 32 C 69 32.812 68.703 33.516 68.11 34.11 C 67.516 34.703 66.812 35 66 35 L 54 35 C 53.188 35 52.484 34.703 51.89 34.11 C 51.297 33.516 51 32.812 51 32 L 51 8 C 51 7.188 51.297 6.484 51.89 5.89 C 52.484 5.297 53.188 5 54 5 L 66 5 C 66.812 5 67.516 5.297 68.11 5.89 C 68.703 6.484 69 7.188 69 8 Z"/>
</svg>
